<svg width="65" height="88" viewBox="0 0 65 88" fill="none" xmlns="http://www.w3.org/2000/svg">
<g clip-path="url(#clip0_1_1409)">
<mask id="mask0_1_1409" style="mask-type:luminance" maskUnits="userSpaceOnUse" x="0" y="0" width="65" height="88">
<path d="M65 0H0V88H65V0Z" fill="white"/>
</mask>
<g mask="url(#mask0_1_1409)">
<path fill-rule="evenodd" clip-rule="evenodd" d="M8.83641 87.2137L1.26457 82.8641C0.768373 82.5244 0.680106 82.0872 0.65625 81.5171V20.1827C0.706347 19.5556 1.00455 19.1707 1.53414 18.869C2.39534 18.3749 3.26369 17.8737 4.12966 17.3724C4.33482 17.2845 4.41593 17.2465 4.63302 17.3225L12.1977 21.6769C11.983 21.5938 11.8995 21.6342 11.6944 21.7221C10.7711 22.2566 9.85029 22.7887 8.92707 23.3161C8.49528 23.6178 8.26387 24.0097 8.22093 24.5371V74.7563L56.0805 47.2426C56.2857 47.15 56.3668 47.1096 56.5839 47.1927L64.151 51.5424C63.941 51.4664 63.8528 51.4972 63.6476 51.5923L12.4029 81.0515L8.22332 78.6474V85.862C8.24479 86.4393 8.34021 86.8692 8.83641 87.2089V87.2137Z" fill="#035BE8"/>
<path fill-rule="evenodd" clip-rule="evenodd" d="M4.42526 17.9543L1.85121 19.4272C1.47667 19.6481 1.32638 19.8548 1.29776 20.2349V81.5146C1.31923 82.0254 1.40272 82.175 1.62935 82.3342L7.56707 85.7431V78.6497C7.56707 78.4193 7.69351 78.2055 7.8939 78.0891C8.0919 77.9727 8.34238 77.9727 8.54516 78.0891L12.4002 80.3102L62.6406 51.4211L56.3832 47.8245L8.54754 75.3168C8.34238 75.4332 8.09428 75.4332 7.89628 75.3168C7.69828 75.2004 7.56946 74.9866 7.56946 74.7562V24.537C7.6291 23.7673 7.96069 23.1948 8.55709 22.7815L10.6898 21.5557L4.42764 17.9543H4.42526ZM8.83143 87.8621C8.72169 87.8621 8.6048 87.8336 8.5046 87.7742L0.937534 83.4246C0.152677 82.8901 0.0310126 82.2036 0 81.5432V20.1826C0.0715675 19.3179 0.446104 18.7406 1.19756 18.3059L3.79785 16.8164C4.13899 16.6573 4.41571 16.5575 4.85228 16.7167L12.5171 21.1162C12.8034 21.2801 12.9203 21.6436 12.7771 21.9524C12.634 22.2541 12.2809 22.3966 11.966 22.2826L9.24414 23.8766C9.01751 24.0405 8.89107 24.2567 8.86244 24.5845L8.86721 73.6397L55.7534 46.6819C56.0397 46.5441 56.3331 46.4135 56.8031 46.5893L64.468 50.9888C64.7614 51.1527 64.8711 51.5162 64.728 51.8202C64.5849 52.129 64.2246 52.2716 63.9169 52.1504L12.7223 81.6168C12.5243 81.7332 12.2738 81.7332 12.0758 81.6168L8.86721 79.7757V85.869C8.88868 86.3845 8.96741 86.5294 9.19881 86.6886C9.48508 86.8858 9.5638 87.273 9.37534 87.5628C9.25368 87.76 9.04375 87.8645 8.82904 87.8645L8.83143 87.8621Z" fill="#035BE8"/>
<path fill-rule="evenodd" clip-rule="evenodd" d="M10.3109 87.0711C9.73121 87.4013 9.21115 87.4345 8.83185 87.2136C8.45731 86.9998 8.21875 86.527 8.21875 85.8666V24.537C8.21875 24.0904 8.53365 23.5416 8.92011 23.316C9.84811 22.7886 10.769 22.2541 11.6922 21.722C12.0834 21.5034 12.3983 21.6839 12.3983 22.1353V81.0561L63.643 51.5969C64.0343 51.3712 64.3492 51.5589 64.3492 52.0031V55.1864C64.3492 55.6306 64.0343 56.1817 63.643 56.4074L10.3109 87.0711Z" fill="#EFF3FA"/>
<path fill-rule="evenodd" clip-rule="evenodd" d="M11.7492 22.4418L9.24195 23.8766C9.05349 23.9859 8.86503 24.3161 8.86503 24.537V85.8667C8.86503 86.2562 8.97 86.5484 9.1513 86.6577C9.32783 86.7622 9.64273 86.7028 9.9791 86.5104L63.316 55.8468C63.5045 55.7375 63.6977 55.4073 63.6977 55.1864V52.3096L12.7178 81.6168C12.5198 81.7332 12.2693 81.7332 12.0713 81.6168C11.8661 81.5004 11.7445 81.2866 11.7445 81.0562V22.4418H11.7492ZM9.36839 87.9999C9.05826 87.9999 8.76722 87.9286 8.50242 87.7742C7.90603 87.4345 7.5625 86.7337 7.5625 85.8667V24.537C7.5625 23.86 8.00384 23.095 8.59546 22.7553L11.3628 21.1661C11.7612 20.9404 12.181 20.919 12.5174 21.1162C12.8538 21.3086 13.0469 21.684 13.0469 22.1329V79.9373L63.3184 51.0315C63.7097 50.8059 64.1295 50.7892 64.4683 50.9864C64.8046 51.1788 64.9979 51.547 64.9979 51.9984V55.1816C64.9979 55.8587 64.5564 56.6236 63.9649 56.9633L10.628 87.6269C10.1962 87.8787 9.77155 87.9999 9.36839 87.9999Z" fill="#035BE8"/>
<path fill-rule="evenodd" clip-rule="evenodd" d="M54.2535 53.0957L12.3984 77.16V32.4664L54.2535 8.40674V53.0957Z" fill="white"/>
<path fill-rule="evenodd" clip-rule="evenodd" d="M13.0555 32.8421V76.0392L53.6128 52.7231V9.52372L13.0555 32.8421ZM12.4043 77.8113C12.2945 77.8113 12.1824 77.7781 12.0846 77.7234C11.8794 77.607 11.7578 77.3932 11.7578 77.1628V32.4692C11.7578 32.2387 11.8794 32.0297 12.0846 31.9085L53.9397 7.84658C54.1377 7.73018 54.3881 7.73018 54.5861 7.84658C54.7913 7.96298 54.913 8.17203 54.913 8.40721V53.0961C54.913 53.3265 54.7913 53.5403 54.5861 53.6567L12.7311 77.7211C12.6309 77.7757 12.5212 77.809 12.4043 77.809V77.8113Z" fill="#035BE8"/>
<path fill-rule="evenodd" clip-rule="evenodd" d="M40.8202 25.366C40.6485 25.2401 40.6055 25.1783 40.4839 25.0096L39.6823 23.5914C39.3507 22.8764 39.4938 22.178 39.7491 21.4629C40.2024 20.3844 40.7821 19.8618 41.555 18.9781C42.7048 17.6739 43.8475 16.3721 44.9902 15.0727C47.4378 12.279 49.895 9.49018 52.3402 6.70128C53.6499 5.21181 54.9524 3.72709 56.2621 2.23524L53.4948 0.645996C51.6937 2.69135 49.8998 4.7367 48.1034 6.78443C45.9779 9.19799 43.8571 11.6186 41.7315 14.0369C40.5888 15.3411 39.4461 16.6382 38.3011 17.9424C37.6116 18.7287 37.2466 19.1183 36.8983 20.1089C36.7051 20.7693 36.6168 21.3631 36.9198 21.9998L37.7142 23.4133C37.8359 23.589 37.8788 23.6437 38.0506 23.7767L40.8179 25.366H40.8202ZM51.8058 26.6583L49.0386 25.069C48.5304 24.7056 48.4923 24.4632 48.4207 23.8694L48.299 20.0471L51.0663 21.6411L51.188 25.4515C51.2643 26.0525 51.3049 26.2924 51.8058 26.6559V26.6583ZM17.8256 67.0285L15.0583 65.4392C14.0922 64.8286 14.4834 63.4104 14.8603 62.5695L25.2638 41.0992C25.8054 40.0255 26.49 39.1465 27.5325 38.5194L38.5611 32.141L43.4539 19.3724L46.2212 20.9617L41.3284 33.7303L30.2998 40.1158C29.2621 40.7382 28.5726 41.6171 28.0311 42.6885L17.6252 64.1516C17.2435 64.9974 16.8523 66.4109 17.8232 67.0285H17.8256Z" fill="#035BE8"/>
<path fill-rule="evenodd" clip-rule="evenodd" d="M48.9719 21.1922L49.0554 23.8433C49.1222 24.3279 49.1222 24.3374 49.4085 24.5417L50.5178 25.1808L50.4128 22.0237L48.9719 21.1922ZM51.7941 27.3021C51.6772 27.3021 51.5746 27.2736 51.4673 27.219L48.7 25.625C47.939 25.0857 47.8507 24.6415 47.7601 23.9526L47.6336 20.071C47.6289 19.8405 47.7505 19.6148 47.9533 19.4937C48.1513 19.3773 48.4066 19.3773 48.6046 19.4937L51.3718 21.0829C51.5698 21.1922 51.6915 21.3965 51.7034 21.6222L51.8203 25.4397C51.8871 25.9077 51.8871 25.9291 52.1686 26.131C52.4501 26.3353 52.5217 26.7201 52.3332 27.0052C52.2116 27.1976 52.0016 27.3021 51.7917 27.3021H51.7941ZM53.6214 1.47273L55.2389 2.4087L44.487 14.6452L40.682 18.9734C40.0809 19.6386 39.5608 20.2159 39.1242 21.2445C38.8881 21.9215 38.6877 22.7126 38.9763 23.5773L38.442 23.2684C38.372 23.213 38.3171 23.156 38.2774 23.0974L37.4973 21.7291C37.2874 21.2944 37.3494 20.8715 37.4973 20.3275C37.7955 19.4866 38.0818 19.1611 38.7783 18.3748L53.6214 1.47273ZM43.7809 20.3133L39.1576 32.3739C39.1028 32.5165 39.0026 32.6258 38.8762 32.7041L27.8476 39.0825C27.0198 39.5766 26.3781 40.3154 25.8318 41.3915L15.433 62.8499C15.3161 63.1041 14.7436 64.4843 15.3948 64.8905L16.559 65.5604C16.5972 65.0592 16.7475 64.4985 17.017 63.8952L27.4325 42.4083C28.1005 41.0946 28.902 40.1871 29.9565 39.5552L40.7918 33.2909L45.4079 21.2469L43.7785 20.3109L43.7809 20.3133ZM17.8138 67.6747C17.7041 67.6747 17.592 67.6462 17.4894 67.5915L14.7221 65.9975C13.6772 65.3443 13.5126 63.9688 14.2522 62.3083L24.6676 40.8214C25.3308 39.5077 26.13 38.605 27.1916 37.9684L38.0269 31.704L40.286 25.815L37.7168 24.3422C37.4138 24.1118 37.3184 24.0001 37.1657 23.7816L36.3427 22.3254C35.9228 21.4345 36.0564 20.6601 36.2663 19.9379C36.6576 18.8262 37.0607 18.3653 37.7358 17.6004L52.9988 0.218438C53.204 -0.011991 53.5403 -0.0666287 53.8099 0.0877823L56.5772 1.68178C56.7418 1.77443 56.8587 1.94072 56.8921 2.13314C56.9255 2.32556 56.8706 2.51798 56.737 2.66051L41.6506 19.8286C41.0804 20.4605 40.6725 20.9166 40.3409 21.7101C40.1262 22.3206 40.0308 22.8218 40.2646 23.316L40.849 24.3446L42.8434 19.1421C42.9102 18.9663 43.0485 18.8285 43.2298 18.762C43.4111 18.7026 43.6115 18.7169 43.7714 18.8119L46.5386 20.4012C46.8154 20.5651 46.937 20.8953 46.8201 21.1922L41.9273 33.9608C41.8724 34.0986 41.7794 34.2197 41.6458 34.291L30.6173 40.6694C29.7942 41.1635 29.1477 41.9023 28.6014 42.9784L18.2027 64.4368C18.0381 64.8002 17.5276 66.0759 18.1645 66.4821C18.4627 66.6698 18.5557 67.0594 18.3744 67.3635C18.248 67.5606 18.0381 67.6723 17.8162 67.6723L17.8138 67.6747Z" fill="#035BE8"/>
<path fill-rule="evenodd" clip-rule="evenodd" d="M17.6183 64.1542L28.0242 42.6911C28.301 42.1257 28.6469 41.6078 29.0286 41.1683C29.4198 40.7241 29.8516 40.3654 30.2929 40.1183L41.3215 33.7329L46.2143 20.9643L43.0773 24.5395C42.1159 25.6346 40.9517 25.8436 40.477 25.0122L39.6754 23.594C39.2126 22.7626 39.6086 21.1899 40.57 20.0948C45.7992 14.144 51.0308 8.18855 56.2552 2.23779C56.4651 8.81095 56.6679 15.3817 56.8731 21.9477C56.9113 23.1569 56.0715 24.682 55.0004 25.34L53.1897 26.4565C52.1186 27.1169 51.2121 26.6656 51.1787 25.4612L51.057 21.6437L45.3292 36.498C45.0811 37.0705 44.7496 37.6311 44.3512 38.1205C43.9265 38.6384 43.4399 39.066 42.9484 39.3463L31.6766 45.8624L22.1271 65.5724C21.4758 66.9193 20.2496 67.8054 19.398 67.5417L17.9618 67.0904C17.1173 66.8267 16.9623 65.5059 17.6135 64.1542H17.6183Z" fill="#EFF3FA"/>
<path fill-rule="evenodd" clip-rule="evenodd" d="M18.2016 64.4413C17.7936 65.2775 17.8103 65.9379 17.9463 66.2515C18.0227 66.4321 18.1229 66.4653 18.1563 66.4772L19.5971 66.9285C20.0266 67.0616 20.9665 66.4772 21.5414 65.2942L31.0909 45.5889C31.1505 45.4678 31.2388 45.368 31.3509 45.3086L42.6228 38.7854C43.0474 38.5431 43.4745 38.1701 43.849 37.7069C44.2021 37.2721 44.505 36.7661 44.7317 36.2388L50.4475 21.4129C50.5644 21.1207 50.8507 20.9568 51.1656 21.0067C51.4685 21.0566 51.6952 21.3155 51.7071 21.622L51.824 25.4395C51.8359 25.7578 51.929 25.9954 52.0721 26.0761C52.2367 26.164 52.5349 26.0975 52.845 25.9051L54.6557 24.7886C55.524 24.2541 56.2516 22.9404 56.223 21.9664L55.6552 3.89563L41.0531 20.515C40.2301 21.4557 39.9438 22.748 40.242 23.2754L41.0435 24.6888C41.1032 24.8052 41.1867 24.8527 41.2964 24.8646C41.5779 24.8931 42.0908 24.6722 42.5894 24.1044L45.7264 20.5364C45.9316 20.3012 46.2847 20.2442 46.5495 20.4057C46.819 20.5696 46.9359 20.8998 46.819 21.192L41.9262 33.9606C41.8713 34.0984 41.7783 34.2195 41.6447 34.2908L30.6162 40.6692C30.2416 40.883 29.8599 41.2037 29.5164 41.5885C29.1633 41.9947 28.8437 42.4746 28.6003 42.9687L18.2016 64.439V64.4413ZM19.726 68.2351C19.5494 68.2351 19.3729 68.2137 19.2059 68.1591L17.7698 67.7077C17.3165 67.5652 16.9587 67.2302 16.7535 66.767C16.4219 66.0021 16.5269 64.9188 17.0303 63.8807L27.4338 42.4105C27.732 41.7999 28.1018 41.2393 28.5383 40.7428C28.9844 40.2368 29.4663 39.8354 29.9697 39.5503L40.7954 33.2931L44.319 24.1092L43.5675 24.962C42.8327 25.7982 41.9596 26.2329 41.1652 26.1545C40.6308 26.0999 40.1824 25.803 39.9104 25.3231L39.116 23.9096C38.5029 22.8383 38.9275 20.9735 40.0822 19.6645L55.7674 1.80752C55.9391 1.61035 56.2206 1.53908 56.4687 1.62698C56.7216 1.71962 56.8934 1.95243 56.9053 2.21611L57.5232 21.9308C57.5685 23.3656 56.6119 25.1045 55.3427 25.8909L53.5321 27.0074C52.8021 27.454 52.0459 27.53 51.4614 27.2164C50.8936 26.9076 50.5549 26.2828 50.5286 25.4846L50.5119 24.8694L45.9388 36.7305C45.6573 37.3838 45.2875 37.9943 44.8557 38.524C44.381 39.1084 43.8347 39.5859 43.2765 39.909L32.1763 46.3277L22.7151 65.85C22.0137 67.3015 20.8043 68.2375 19.7284 68.2375L19.726 68.2351Z" fill="#035BE8"/>
</g>
</g>
<defs>
<clipPath id="clip0_1_1409">
<rect width="65" height="88" fill="white"/>
</clipPath>
</defs>
</svg>
