<svg width="74" height="75" viewBox="0 0 74 75" fill="none" xmlns="http://www.w3.org/2000/svg">
<g clip-path="url(#clip0_1_1182)">
<mask id="mask0_1_1182" style="mask-type:luminance" maskUnits="userSpaceOnUse" x="0" y="0" width="74" height="75">
<path d="M74 0H0V75H74V0Z" fill="white"/>
</mask>
<g mask="url(#mask0_1_1182)">
<path fill-rule="evenodd" clip-rule="evenodd" d="M33.2357 5.01318C40.2529 1.08716 48.7701 -1.45911 56.2748 2.75958L63.876 7.1288C50.5434 -0.183887 34.2945 12.351 26.0041 21.9967C15.7136 33.9587 7.01572 52.6439 8.33932 68.5738C8.5158 70.6977 9.1755 72.5918 11.0495 73.7876C9.5957 72.9555 3.4819 69.619 2.5953 68.7786C0.0405321 66.3494 0.527955 60.3998 0.784272 57.2598C2.46084 37.4541 15.9826 15.1606 33.2357 5.01318Z" fill="#035BE8"/>
<path fill-rule="evenodd" clip-rule="evenodd" d="M33.5257 5.50677C16.5877 15.4786 3.04918 37.262 1.37262 57.3018C1.1289 60.1575 0.628873 66.0988 2.98195 68.3649C3.51559 68.8625 6.33928 70.4889 8.51588 71.7098C8.11249 70.8443 7.86878 69.8241 7.77214 68.6158C6.40231 52.0462 15.7305 33.0809 25.5714 21.629C33.8996 11.9373 46.7743 2.68873 58.3926 4.62875L55.9849 3.24899C49.8879 -0.179483 42.3203 0.581471 33.5257 5.50677ZM11.0496 74.3564C10.9529 74.3564 10.8563 74.3313 10.7597 74.2853C10.4739 74.1181 9.99915 73.8505 9.42349 73.5244C6.1502 71.6931 2.90632 69.8576 2.19619 69.1886C-0.564472 66.542 -0.0476364 60.4711 0.225489 57.2057C1.95248 36.8188 15.6969 14.6633 32.9458 4.52422V4.51586C42.1228 -0.618495 50.0812 -1.37945 56.548 2.26226L64.166 6.63566C64.4434 6.79036 64.54 7.1332 64.3761 7.40916C64.2333 7.68092 63.8803 7.77291 63.603 7.62657C51.3208 0.89087 35.9123 11.3603 26.4454 22.369C16.7474 33.637 7.57045 52.2762 8.91926 68.5238C9.11255 70.8778 9.85629 72.3537 11.3563 73.307C11.6126 73.4784 11.6967 73.8212 11.537 74.0846C11.4194 74.2603 11.2471 74.3564 11.0496 74.3564Z" fill="#035BE8"/>
<path fill-rule="evenodd" clip-rule="evenodd" d="M40.8383 9.38272C49.843 4.2191 57.9947 3.7341 63.8816 7.12913C69.7853 10.52 73.4325 17.7909 73.4325 28.1348C73.4325 29.1466 73.3821 30.2337 73.3149 31.279C73.1048 34.2224 71.9787 37.3624 70.2811 40.1261C68.6087 42.8898 66.3481 45.2646 63.8942 46.6737L53.6793 52.5355C52.3095 55.2825 50.5951 57.9082 48.658 60.2245C46.3176 63.0425 43.6367 65.409 40.8172 67.0271C37.9935 68.6494 35.3127 69.3518 32.9765 69.2305C31.0352 69.1344 29.3292 68.4654 27.972 67.2905L17.7571 73.1524C15.2906 74.5614 13.0426 74.7746 11.3534 73.9551C9.66001 73.1315 8.5465 71.2792 8.3364 68.5741C8.27338 67.6083 8.21875 66.5672 8.21875 65.5554C8.23976 55.2114 11.887 43.7553 17.7907 33.5911C23.6818 23.4228 31.8419 14.5505 40.8298 9.38691L40.8383 9.38272Z" fill="#EFF3FA"/>
<path fill-rule="evenodd" clip-rule="evenodd" d="M55.3732 5.51457C51.0201 5.51457 46.1753 6.98213 41.1287 9.87543C32.5106 14.8216 24.3967 23.3426 18.2787 33.8706C12.1775 44.3901 8.80757 55.6456 8.80757 65.5505C8.80757 66.4954 8.84119 67.5198 8.92102 68.5274C9.10171 70.9357 10.0514 72.6834 11.6019 73.4402C13.1818 74.2012 15.2659 73.9252 17.4719 72.6542L27.6868 66.7923C27.9011 66.6711 28.1742 66.6961 28.3549 66.855C29.6281 67.9588 31.208 68.5693 33.0148 68.6612C35.3049 68.7741 37.9017 68.0424 40.5363 66.5331C43.2171 64.9986 45.8769 62.6949 48.2342 59.8601C50.1377 57.573 51.7974 55.0226 53.1714 52.2798C53.2219 52.1795 53.2975 52.0958 53.3941 52.0373L63.609 46.1755C65.8991 44.8542 68.1135 42.6048 69.8068 39.8244C71.517 37.0398 72.5633 33.9918 72.744 31.2407C72.828 30.1745 72.8574 29.1 72.8574 28.13C72.8574 18.3379 69.5841 11.0545 63.6132 7.61347C61.1761 6.21699 58.4028 5.51457 55.3859 5.51457H55.3732ZM13.5347 74.9997C12.6649 74.9997 11.8372 74.8241 11.0976 74.4646C9.16053 73.5238 7.984 71.4458 7.7697 68.6152C7.68986 67.5783 7.65625 66.5247 7.65625 65.5589C7.65625 55.4574 11.0808 44.0055 17.2913 33.3061C23.5017 22.611 31.7669 13.9436 40.5573 8.89706C49.4317 3.79615 57.823 2.99339 64.1595 6.64346C70.5002 10.2894 73.9878 17.9282 73.9878 28.1425C73.9878 29.146 73.9541 30.2414 73.8701 31.3285C73.66 34.2678 72.5675 37.4997 70.7775 40.4307C68.9665 43.37 66.6302 45.7657 64.1595 47.1789L54.1127 52.953C52.7218 55.7167 51.0285 58.288 49.0914 60.6043C46.6543 63.5353 43.8768 65.9394 41.0993 67.5365C38.2798 69.1546 35.4393 69.9323 32.9392 69.8152C31.0525 69.719 29.3045 69.0877 27.9053 67.9923L18.0308 73.6618C16.4635 74.5607 14.934 75.0165 13.5263 75.0165L13.5347 74.9997Z" fill="#035BE8"/>
<path fill-rule="evenodd" clip-rule="evenodd" d="M59.8093 14.1446C54.9519 11.3517 48.2372 11.7489 40.8292 16.0052C33.4213 20.2657 26.7108 27.5617 21.8576 35.928C17.0002 44.2943 14 53.7268 14 62.2436C14 63.1258 14.0126 63.9119 14.084 64.7564C14.1639 65.8101 14.6009 66.5334 15.2395 66.8512C15.9077 67.1647 16.7901 67.0853 17.7607 66.5209L29.4294 59.8228V59.8353C30.3623 59.3001 31.2825 59.3001 31.8329 59.9524C32.8162 61.1189 34.1566 61.7753 35.7239 61.8548C37.2198 61.9342 38.9636 61.4659 40.8208 60.3998C42.6949 59.3294 44.4135 57.7991 45.9178 56.0055C47.4347 54.1909 48.7246 52.0962 49.6953 49.9053C50.1785 48.605 51.1281 47.3632 52.208 46.7444L63.8894 40.0463C64.8558 39.4861 65.7424 38.5621 66.3895 37.4917C67.0492 36.4172 67.4904 35.1963 67.566 34.0507C67.6333 33.135 67.6501 32.3197 67.6501 31.4375C67.6627 22.9207 64.6625 16.9334 59.8093 14.1404V14.1446Z" fill="white"/>
<path fill-rule="evenodd" clip-rule="evenodd" d="M52.8107 12.9278C49.2475 12.9278 45.2556 14.1278 41.1294 16.4985C34.0491 20.5625 27.3807 27.5657 22.3636 36.2164C17.3423 44.8628 14.569 54.1072 14.569 62.2477C14.569 63.1132 14.6026 63.8867 14.6531 64.7145C14.7161 65.5298 15.0228 66.1068 15.5103 66.341C16.0103 66.5835 16.7036 66.4748 17.4768 66.0316L29.1455 59.3335C29.1959 59.3126 29.2253 59.3 29.2589 59.2917C30.4355 58.6562 31.5826 58.769 32.2927 59.5969C33.1499 60.638 34.3601 61.2233 35.7593 61.2944C37.2132 61.3655 38.8435 60.8888 40.5369 59.9105C42.2765 58.9154 43.9909 57.4436 45.4952 55.6458C46.9658 53.8856 48.239 51.8243 49.1886 49.6836C49.7223 48.2453 50.7896 46.9199 51.9493 46.2551L63.6138 39.557C64.471 39.0637 65.2904 38.2275 65.9249 37.1989C66.551 36.162 66.9418 35.0373 67.0048 34.0129C67.0678 33.114 67.1014 32.3029 67.1014 31.4374C67.1014 23.4098 64.4206 17.4476 59.5338 14.6337C57.5505 13.4881 55.273 12.9195 52.8233 12.9195L52.8107 12.9278ZM16.0817 67.6036C15.6909 67.6036 15.338 67.5242 15.0018 67.3653C14.132 66.943 13.5984 66.0316 13.5185 64.8023C13.4513 63.9452 13.4219 63.1424 13.4219 62.2477C13.4219 53.9106 16.2414 44.4614 21.3593 35.6436C26.4899 26.8257 33.3012 19.6719 40.5621 15.5117C47.9029 11.2972 54.8402 10.6324 60.101 13.6595C65.3492 16.6782 68.2317 22.9958 68.2317 31.4458C68.2317 32.3405 68.2023 33.1726 68.1351 34.0966C68.0595 35.2965 67.6057 36.6094 66.8955 37.7926C66.1518 38.9801 65.2022 39.9542 64.1853 40.5396L52.504 47.2418C51.5669 47.777 50.6929 48.8766 50.2265 50.1059C49.2265 52.3762 47.9029 54.5294 46.3566 56.3691C44.7766 58.2673 42.9656 59.831 41.1084 60.893C39.2259 61.9759 37.3686 62.5027 35.6921 62.4275C33.9651 62.3355 32.4818 61.608 31.4019 60.3202C30.9145 59.7349 30.0615 60.1321 29.7254 60.3286C29.6917 60.3411 29.6581 60.362 29.6287 60.3704L18.0566 67.0099C17.3759 67.403 16.6994 67.5953 16.0859 67.5953L16.0817 67.6036Z" fill="#035BE8"/>
<path fill-rule="evenodd" clip-rule="evenodd" d="M40.4109 53.2378C42.3606 52.7193 44.3439 50.2441 44.8817 47.7062C45.3481 45.415 44.0581 43.5879 42.2975 44.0561C40.3604 44.5704 38.3645 47.0456 37.8267 49.5793C37.3098 52.1131 38.4612 53.752 40.4109 53.2378Z" fill="#035BE8"/>
<path fill-rule="evenodd" clip-rule="evenodd" d="M42.8503 44.553C42.7201 44.553 42.594 44.574 42.447 44.6074C40.7368 45.0673 38.8627 47.4004 38.3963 49.6999C38.14 50.9166 38.3165 51.941 38.8501 52.4385C39.2871 52.8441 39.867 52.7981 40.2704 52.6894C41.9973 52.2295 43.8504 49.8965 44.321 47.5969C44.5437 46.4931 44.321 45.4687 43.7369 44.9126C43.4806 44.6743 43.1739 44.553 42.8503 44.553ZM39.7157 53.9061C39.0896 53.9061 38.5056 53.6887 38.0517 53.2664C37.2282 52.4804 36.9424 51.0964 37.2786 49.47C37.8417 46.7021 39.9888 44.0848 42.1528 43.5078C43.0436 43.2736 43.863 43.4827 44.5059 44.0848C45.3967 44.9084 45.7371 46.3384 45.4429 47.8268C44.8589 50.5947 42.7159 53.212 40.5561 53.789C40.2662 53.8685 39.9888 53.9061 39.7157 53.9061Z" fill="#035BE8"/>
<path fill-rule="evenodd" clip-rule="evenodd" d="M61.6833 35.5853C61.4732 35.5853 61.3009 35.4849 61.1875 35.301C61.0278 35.025 61.1202 34.6822 61.3976 34.5233L64.5112 32.738C64.7843 32.5791 65.1373 32.6752 65.2844 32.947C65.4482 33.2188 65.3516 33.5658 65.0743 33.7205L61.9606 35.51C61.8766 35.5602 61.78 35.5894 61.6833 35.5894V35.5853Z" fill="#035BE8"/>
<path fill-rule="evenodd" clip-rule="evenodd" d="M55.5771 22.1474C55.4847 22.1474 55.3671 22.1224 55.2914 22.068C55.0141 21.9133 54.9174 21.5663 55.0771 21.2945L57.2915 17.4939C57.4386 17.218 57.7916 17.1302 58.0647 17.2849C58.342 17.4396 58.4387 17.7866 58.2748 18.0625L56.0646 21.8548C55.9679 22.0387 55.7746 22.1391 55.5771 22.1391V22.1474Z" fill="#035BE8"/>
<path fill-rule="evenodd" clip-rule="evenodd" d="M40.8364 23.5896C40.5171 23.5896 40.2734 23.3387 40.2734 23.0251V19.4419C40.2734 19.1284 40.5297 18.8691 40.8364 18.8691C41.1642 18.8691 41.4205 19.1242 41.4205 19.4419V23.0251C41.4205 23.3387 41.1642 23.5896 40.8364 23.5896Z" fill="#035BE8"/>
<path fill-rule="evenodd" clip-rule="evenodd" d="M26.0832 39.0677C25.9865 39.0677 25.8899 39.0385 25.7932 38.9883L23.5998 37.7214C23.3267 37.5667 23.2301 37.2197 23.3897 36.9479C23.5494 36.672 23.8898 36.58 24.1629 36.7389L26.3689 38.0057C26.6462 38.1604 26.7429 38.5075 26.5832 38.7792C26.4655 38.9632 26.2765 39.0635 26.0832 39.0635V39.0677Z" fill="#035BE8"/>
<path fill-rule="evenodd" clip-rule="evenodd" d="M16.8573 61.303C16.6682 61.303 16.4749 61.2068 16.3741 61.0229C16.2144 60.7511 16.311 60.4041 16.5842 60.2452L19.6978 58.4557C19.9541 58.301 20.3113 58.393 20.4709 58.6689C20.6348 58.9407 20.5382 59.2835 20.2608 59.4424L17.1472 61.2319C17.0506 61.2821 16.9539 61.303 16.8573 61.303Z" fill="#035BE8"/>
<path fill-rule="evenodd" clip-rule="evenodd" d="M44.3998 45.3769C44.2738 45.3769 44.1435 45.335 44.0469 45.2514C43.7906 45.0549 43.7611 44.6953 43.9502 44.4487L60.6655 23.8611C60.8588 23.6144 61.2159 23.5809 61.4722 23.7733C61.7159 23.9698 61.7496 24.3294 61.5563 24.576L44.841 45.1636C44.7276 45.3058 44.5679 45.3769 44.404 45.3769H44.3998Z" fill="#035BE8"/>
</g>
</g>
<defs>
<clipPath id="clip0_1_1182">
<rect width="74" height="75" fill="white"/>
</clipPath>
</defs>
</svg>
