<svg width="57" height="78" viewBox="0 0 57 78" fill="none" xmlns="http://www.w3.org/2000/svg">
<g clip-path="url(#clip0_1_1237)">
<path fill-rule="evenodd" clip-rule="evenodd" d="M54.9671 4.71131L48.0521 0.720345C39.1211 -1.41366 0.578125 21.9114 0.578125 29.7004L7.49408 33.6914C10.3641 25.9014 25.5721 16.9113 31.7471 13.2663C37.6001 9.9723 49.5091 3.40731 54.9671 4.71131Z" fill="#EFF3FA"/>
<path fill-rule="evenodd" clip-rule="evenodd" d="M1.18795 29.3792L7.21896 32.8573C10.726 24.9832 25.7189 16.1512 31.4569 12.7682C38.5359 8.7682 46.9869 4.39122 52.5639 3.99122L47.8419 1.26417C41.7959 -0.0298284 21.4419 10.6292 9.53091 20.0392C4.49691 24.0152 1.49895 27.3842 1.18795 29.3792ZM7.49594 34.2792C7.39805 34.2792 7.30214 34.2517 7.21896 34.2001L0.283899 30.2092C0.198189 30.1573 0.127617 30.0838 0.0791875 29.996C0.0307577 29.9083 0.0061622 29.8094 0.00789845 29.7092C0.00789845 26.7152 4.79395 22.3092 8.80795 19.1332C19.9169 10.3652 41.3499 -1.46683 48.1859 0.160168C48.2362 0.175159 48.2843 0.196702 48.3289 0.224194L55.2449 4.21522C55.3657 4.28217 55.4584 4.39026 55.5062 4.51985C55.5539 4.64944 55.5536 4.79189 55.5051 4.92122C55.4566 5.05054 55.3633 5.15811 55.2421 5.22438C55.1209 5.29064 54.98 5.31114 54.8449 5.28218C49.3869 3.98218 36.7859 11.1012 32.0339 13.7822C26.2449 17.1902 10.858 26.2592 8.04196 33.9012C8.01443 33.9814 7.96892 34.0542 7.90896 34.1142C7.849 34.1742 7.77615 34.2196 7.69595 34.2471C7.62898 34.2694 7.55836 34.2786 7.48794 34.2742L7.49594 34.2792Z" fill="#035BE8"/>
<path fill-rule="evenodd" clip-rule="evenodd" d="M7.3763 34.6452C8.2953 64.6632 3.49429 82.9731 31.7283 74.5121C59.9473 50.4071 55.1613 37.6332 56.1143 6.53916C56.4093 -3.39984 7.0833 25.0472 7.3763 34.6452Z" fill="white"/>
<path fill-rule="evenodd" clip-rule="evenodd" d="M7.9714 34.6293C8.1004 39.0403 8.11538 43.1152 8.11538 47.0522C8.16938 60.5272 8.18439 70.2583 13.3754 74.1163C16.8324 76.6693 22.5754 76.6353 31.4344 73.9923C55.2284 53.6413 55.2774 41.3763 55.3614 19.1333C55.3764 15.1813 55.3914 11.0913 55.5244 6.5233C55.558 6.29766 55.525 6.06711 55.4295 5.85997C55.3339 5.65282 55.1799 5.4781 54.9864 5.35728C52.4424 3.87028 42.2524 7.72329 30.7134 14.5393C17.4134 22.4033 7.83838 30.8493 7.97238 34.6283L7.9714 34.6293ZM20.2414 77.1583C17.5605 77.2961 14.9082 76.5537 12.6884 75.0443C7.03738 70.8443 7.00337 60.8682 6.95437 47.0572C6.95437 43.1252 6.93936 39.0573 6.80636 34.6643C6.64336 29.6903 18.4064 20.4642 30.1254 13.5422C39.5794 7.95622 51.9034 2.20127 55.5734 4.36027C55.9471 4.58535 56.2499 4.91099 56.4472 5.30003C56.6446 5.68906 56.7285 6.12581 56.6894 6.56028C56.5364 11.1143 56.5364 15.1942 56.5214 19.1412C56.4424 41.7542 56.3934 54.2172 32.1054 74.9582C32.0398 75.0053 31.9681 75.0433 31.8924 75.0713C28.1272 76.3158 24.2043 77.0178 20.2414 77.1583Z" fill="#035BE8"/>
<path fill-rule="evenodd" clip-rule="evenodd" d="M31.7338 43.1411L31.7188 74.5121H31.7338C51.9568 57.2431 55.2338 45.7881 55.8038 29.2461L31.7338 43.1411Z" fill="#EFF3FA"/>
<path fill-rule="evenodd" clip-rule="evenodd" d="M32.3007 43.476V73.251C50.6217 57.346 54.4747 46.489 55.1757 30.272L32.3007 43.472V43.476ZM31.7136 75.094C31.5956 75.0957 31.48 75.0608 31.3826 74.994C31.3079 74.9384 31.2471 74.8662 31.2051 74.7831C31.1631 74.6999 31.141 74.6082 31.1406 74.515V43.144C31.142 43.0426 31.1697 42.9432 31.2208 42.8556C31.272 42.768 31.3449 42.6951 31.4326 42.644L55.5026 28.749C55.5927 28.6969 55.695 28.6694 55.7991 28.6694C55.9032 28.6694 56.0055 28.6969 56.0956 28.749C56.1855 28.8012 56.259 28.8774 56.3079 28.9691C56.3569 29.0608 56.3793 29.1644 56.3726 29.2681C55.7726 46.6951 51.9806 57.976 32.1046 74.954C32.0496 74.9945 31.9899 75.0281 31.9266 75.054C31.8583 75.0802 31.7868 75.0938 31.7136 75.094Z" fill="#035BE8"/>
<path fill-rule="evenodd" clip-rule="evenodd" d="M7.37627 34.644C7.63827 43.155 7.44026 50.722 7.67626 57.01L31.7322 43.13L31.7472 13.27C19.4912 20.339 7.23127 29.848 7.37627 34.644Z" fill="#EFF3FA"/>
<path fill-rule="evenodd" clip-rule="evenodd" d="M7.97449 34.6302C8.10349 39.0462 8.11847 43.1214 8.11847 47.0634C8.13847 50.2404 8.13845 53.2573 8.21845 56.0243L31.1475 42.7963L31.1625 14.2803C17.5445 22.2523 7.84344 30.7433 7.97644 34.6313L7.97449 34.6302ZM7.67444 57.5894C7.57063 57.5883 7.4683 57.5647 7.37445 57.5203C7.29087 57.4666 7.22052 57.3947 7.16858 57.3101C7.11664 57.2254 7.08445 57.1301 7.07446 57.0312C6.97446 53.9932 6.96047 50.6314 6.94647 47.0684C6.94647 43.1374 6.93146 39.0683 6.79846 34.6683C6.63546 29.4573 19.0535 19.9133 31.4465 12.7683C31.5333 12.7173 31.6322 12.6904 31.733 12.6904C31.8337 12.6904 31.9326 12.7173 32.0195 12.7683C32.107 12.8194 32.1798 12.8924 32.2308 12.98C32.2818 13.0676 32.3093 13.1669 32.3105 13.2683L32.2955 43.1283C32.2971 43.2285 32.2725 43.3273 32.2241 43.415C32.1756 43.5028 32.1051 43.5763 32.0195 43.6283L7.94446 57.5083C7.8646 57.5585 7.77277 57.5866 7.67847 57.5894H7.67444Z" fill="#035BE8"/>
<path fill-rule="evenodd" clip-rule="evenodd" d="M0.578125 29.6659C0.697125 29.1819 0.840132 28.6389 1.02313 28.0509C3.30013 23.2989 13.9841 15.371 24.7671 9.25098L28.8971 11.632L31.7471 13.272C25.5531 16.918 10.3641 25.9079 7.49408 33.6919L0.578125 29.7009V29.6659Z" fill="#035BE8"/>
<path fill-rule="evenodd" clip-rule="evenodd" d="M1.25011 29.4141L7.21208 32.8571C10.5561 25.3491 24.3381 16.971 30.5811 13.282L24.7621 9.91797C13.0751 16.587 3.54106 24.124 1.54106 28.303C1.44106 28.663 1.32807 29.044 1.24907 29.415L1.25011 29.4141ZM7.48906 34.274C7.39118 34.2739 7.29529 34.2466 7.21208 34.1951L0.277084 30.204C0.187225 30.1484 0.114133 30.0694 0.0655364 29.9756C0.0169398 29.8817 -0.00534698 29.7765 0.00108329 29.671C-0.00215961 29.6222 0.00428007 29.5733 0.0200652 29.527C0.134065 29.033 0.277068 28.4801 0.460068 27.8821C2.96907 22.6271 14.3251 14.5061 24.4811 8.74707C24.5692 8.69721 24.6688 8.6709 24.7701 8.6709C24.8713 8.6709 24.9709 8.69721 25.0591 8.74707L32.0241 12.7681C32.1116 12.8192 32.1845 12.8921 32.2355 12.9797C32.2865 13.0674 32.3139 13.1667 32.3151 13.2681C32.3143 13.3678 32.2886 13.4657 32.2404 13.553C32.1922 13.6403 32.123 13.7142 32.0391 13.7681C26.2391 17.1811 10.8481 26.25 8.03209 33.892C7.99172 34.0035 7.91791 34.1 7.82072 34.168C7.72354 34.236 7.60768 34.2723 7.48906 34.272V34.274Z" fill="#035BE8"/>
<path fill-rule="evenodd" clip-rule="evenodd" d="M0.578125 29.7012L1.13708 58.6862C1.34908 69.9332 5.35108 70.2102 13.7571 75.0612C9.08408 71.8062 8.31408 66.4022 7.87408 60.8402L7.49408 33.6931L0.578125 29.7012Z" fill="#EFF3FA"/>
<path fill-rule="evenodd" clip-rule="evenodd" d="M1.18288 30.7183L1.70687 58.6813C1.88987 67.8393 4.55688 69.4003 10.4249 72.5613C8.16689 69.3313 7.63887 65.1963 7.29287 60.8843L6.91787 34.0322L1.18288 30.7183ZM13.7539 75.6432C13.6546 75.6421 13.5573 75.6149 13.4719 75.5642C12.2419 74.8642 11.1309 74.2643 10.0979 73.7023C3.86892 70.3383 0.73788 68.6543 0.54488 58.7023L0.000873287 29.7123C-0.00488535 29.6102 0.0179251 29.5085 0.0666692 29.4186C0.115413 29.3287 0.188169 29.2541 0.276874 29.2033C0.366548 29.1504 0.468598 29.122 0.572712 29.1211C0.676826 29.1202 0.779339 29.1469 0.869892 29.1983L7.78591 33.1892C7.87392 33.2406 7.94752 33.3134 7.99996 33.4008C8.0524 33.4882 8.08197 33.5874 8.0859 33.6892L8.4609 60.8323C8.8849 66.2953 9.64088 71.4813 14.0969 74.5883C14.1961 74.6609 14.2699 74.7629 14.3078 74.8799C14.3457 74.9969 14.3458 75.1229 14.3081 75.2399C14.2703 75.3569 14.1966 75.4591 14.0975 75.5319C13.9984 75.6047 13.8788 75.6443 13.7559 75.6453L13.7539 75.6432Z" fill="#035BE8"/>
<path fill-rule="evenodd" clip-rule="evenodd" d="M1.01532 53.1282L7.66833 57.0201V57.0101L7.64929 56.8722C7.64743 56.3416 7.69701 55.8121 7.7973 55.2911L7.48633 33.6912L0.570312 29.7002L1.01532 53.1282Z" fill="#035BE8"/>
<path fill-rule="evenodd" clip-rule="evenodd" d="M1.59188 52.7932L7.11391 56.0232C7.13391 55.7472 7.17786 55.4753 7.22786 55.1883L6.91689 34.0322L1.1819 30.7183L1.59188 52.7932ZM7.65291 57.5933C7.55533 57.5962 7.459 57.5705 7.37587 57.5193L0.722919 53.6272C0.639598 53.5753 0.570559 53.5034 0.522175 53.418C0.47379 53.3326 0.447563 53.2365 0.445881 53.1383L0.000873287 29.7102C-0.00488535 29.6081 0.0179251 29.5065 0.0666692 29.4166C0.115413 29.3268 0.188169 29.2522 0.276874 29.2013C0.366548 29.1484 0.468598 29.12 0.572712 29.1192C0.676826 29.1183 0.779339 29.1449 0.869892 29.1963L7.78591 33.1873C7.87392 33.2387 7.94752 33.3114 7.99996 33.3988C8.0524 33.4862 8.08197 33.5854 8.0859 33.6873L8.37691 55.2873C8.28609 55.8076 8.24319 56.3352 8.24886 56.8633V57.0163C8.24811 57.12 8.22 57.2217 8.16732 57.3111C8.11464 57.4004 8.03928 57.4744 7.94887 57.5253C7.85806 57.5731 7.75651 57.5969 7.65389 57.5943L7.65291 57.5933Z" fill="#035BE8"/>
</g>
<defs>
<clipPath id="clip0_1_1237">
<rect width="56.688" height="77.159" fill="white"/>
</clipPath>
</defs>
</svg>
